<svg id="Layer_1" enable-background="new 0 0 512.003 512.003" height="512" viewBox="0 0 512.003 512.003" width="512" xmlns="http://www.w3.org/2000/svg"><g><g clip-rule="evenodd" fill-rule="evenodd"><path d="m197.354 153.733h45.012l17.628-67.702c-6.034-1.569-12.686.551-16.627 5.867z" fill="#ffc144"/><path d="m259.994 86.031-17.628 67.702h72.327l-45.843-61.606c-.933-1.307-2.083-2.493-3.442-3.501-1.674-1.241-3.513-2.101-5.414-2.595z" fill="#ffcd69"/><path d="m242.367 153.733h-45.013l-50.737 68.184h77.996z" fill="#ffcd69"/><path d="m242.367 153.733-17.754 68.184h140.817l-50.737-68.184z" fill="#ffda8f"/><path d="m224.613 221.917h-77.996l-50.738 68.184h110.981z" fill="#ffc144"/><path d="m224.613 221.917-17.753 68.184h209.308l-50.738-68.184z" fill="#ffcd69"/><path d="m206.86 290.101h-110.981l-50.737 68.183h143.965z" fill="#ffcd69"/><path d="m206.86 290.101-17.753 68.183h277.798l-50.737-68.183z" fill="#ffda8f"/><path d="m189.107 358.284h-143.965l-31.237 41.979c-2.431 2.78-3.904 6.417-3.904 10.4 0 8.729 7.076 15.805 15.805 15.805h145.549z" fill="#ffc144"/><path d="m189.107 358.284-17.753 68.184h314.889c3.265.003 6.56-1.055 9.384-3.149 6.99-5.183 8.455-15.051 3.272-22.04l-31.993-42.995z" fill="#ffcd69"/></g><g><path d="m506.921 395.309-229.996-309.081c-1.55-2.151-3.419-4.046-5.562-5.635-11.408-8.457-27.57-6.059-36.019 5.336l-229.255 308.086c-3.93 4.651-6.089 10.546-6.089 16.648 0 14.229 11.576 25.805 25.805 25.805h277.182c5.523 0 10-4.477 10-10s-4.477-10-10-10h-36.335l.488-48.184h131.291l25.565 48.184h-31.008c-5.523 0-10 4.477-10 10s4.477 10 10 10h93.249.019c5.514 0 10.814-1.769 15.328-5.116 5.526-4.097 9.126-10.102 10.137-16.907 1.008-6.805-.692-13.596-4.8-19.136zm-170.112-47.025-12.217-48.184h86.552l35.855 48.184zm-134.765 0 12.546-48.184h89.369l12.217 48.184zm-126.723 68.184 23.32-48.184h77.529l-12.546 48.184zm25.581-116.367h44.674l-20.782 48.184h-59.746zm50.738-68.184h60.036l-12.546 48.184h-83.346zm50.738-68.184h27.052l-12.546 48.184h-50.361zm143.146 48.184h-43.293l-12.218-48.184h19.656zm-77.492 68.184.487-48.184h57.558l25.565 48.184zm-48.235 0 12.546-48.184h16.175l-.487 48.184zm154.486 0-25.565-48.184h11.689l35.855 48.184zm-104.902-116.368 12.218 48.184h-44.048l12.546-48.184zm-122.805 184.551 20.782-48.184h26.566l-12.546 48.184zm148.211-204.551h-39.483l10.234-39.306zm-50.797-35.921-9.353 35.922h-17.377zm-223.99 302.851c0-1.802.779-3.07 1.432-3.816.173-.198.338-.403.495-.614l28.238-37.948h26.257l-23.32 48.184h-27.297c-3.201-.001-5.805-2.605-5.805-5.806zm226.651 5.805h-62.36l12.546-48.184h50.302zm245.285-4.96c-.226 1.521-1.03 2.862-2.266 3.778-1.042.773-2.224 1.182-3.423 1.182-.001 0-.002 0-.004 0h-39.607l-25.565-48.184h40.811l28.984 38.951c.916 1.235 1.296 2.753 1.07 4.273z"/><path d="m347.99 416.468h-.007c-5.523 0-9.996 4.477-9.996 10s4.48 10 10.003 10 10-4.477 10-10-4.477-10-10-10z"/></g></g></svg>